# xmcd CD database file
#
# Track frame offsets:
#	150
#	39712
#	60952
#	85783
#	114569
#	135319
#	164863
#	204990
#	223775
#	245199
#	264833
#	290376
#	315876
#
# Disc length: 4690 seconds
#
# Revision: 0
# Processed by: cddbd v1.5.2PL0 Copyright (c) Steve Scherf et al.
# Submitted via: CDex 1.51
#
DISCID=b612500d
DTITLE=Eric Dolphy - 12 Classic Albums Disc Five
DYEAR=1962
DGENRE=Jazz
TTITLE0=Stolen Moments
TTITLE1=Hoe Down
TTITLE2=Cascades
TTITLE3=Yearnin'
TTITLE4=Butch And Butch
TTITLE5=Teenie's Blues
TTITLE6=Status Seeking
TTITLE7=Duquility
TTITLE8=Thirteen
TTITLE9=We Diddit
TTITLE10=Warm Canto
TTITLE11=Warp And Woof
TTITLE12=Fire Waltz
EXTD=YEAR: 1962
EXTT0=
EXTT1=
EXTT2=
EXTT3=
EXTT4=
EXTT5=
EXTT6=
EXTT7=
EXTT8=
EXTT9=
EXTT10=
EXTT11=
EXTT12=
PLAYORDER=
